M48
INCH
T01C0.0150
T02C0.0300
%
T01
X-016000Y+030000
X-021000Y+035000
T02
X-020472Y+038188
X-019685Y+038188
X-018897Y+038188
X-018110Y+038188
X-017322Y+038188
X-020472Y+032677
X-019685Y+032677
X-018897Y+032677
X-018110Y+032677
X-017322Y+032677
X-022047Y+028346
X-021047Y+028346
X-020047Y+028346
X-019047Y+028346
X-018047Y+028346
X-017047Y+028346
X-016047Y+028346
X-015047Y+028346
X-015047Y+031346
X-016047Y+031346
X-017047Y+031346
X-018047Y+031346
X-019047Y+031346
X-020047Y+031346
X-021047Y+031346
X-022047Y+031346
X-022440Y+027177
X-022440Y+026377
X-022440Y+025577
X-018685Y+026771
X-019685Y+026771
X-022440Y+020472
X-022440Y+024472
X-021259Y+020472
X-021259Y+024472
X-020078Y+020472
X-020078Y+024472
X-018897Y+024472
X-018897Y+020472
M30
